<svg width="129" height="29" viewBox="0 0 129 29" fill="none" xmlns="http://www.w3.org/2000/svg">
<path d="M34.9176 5.54545H38.1136L43.6705 19.1136H43.875L49.4318 5.54545H52.6278V23H50.1222V10.3693H49.9602L44.8125 22.9744H42.733L37.5852 10.3608H37.4233V23H34.9176V5.54545ZM61.1742 23.2642C59.8844 23.2642 58.7736 22.9886 57.8418 22.4375C56.9157 21.8807 56.1997 21.0994 55.6941 20.0938C55.1941 19.0824 54.9441 17.8977 54.9441 16.5398C54.9441 15.1989 55.1941 14.017 55.6941 12.9943C56.1997 11.9716 56.9043 11.1733 57.8077 10.5994C58.7168 10.0256 59.7793 9.73864 60.9952 9.73864C61.7338 9.73864 62.4497 9.8608 63.1429 10.1051C63.8361 10.3494 64.4583 10.733 65.0094 11.2557C65.5605 11.7784 65.9952 12.4574 66.3134 13.2926C66.6316 14.1222 66.7907 15.1307 66.7907 16.3182V17.2216H56.3844V15.3125H64.2935C64.2935 14.642 64.1571 14.0483 63.8844 13.5312C63.6117 13.0085 63.2282 12.5966 62.7338 12.2955C62.2452 11.9943 61.6713 11.8438 61.0122 11.8438C60.2963 11.8438 59.6713 12.0199 59.1372 12.3722C58.6088 12.7187 58.1997 13.1733 57.91 13.7358C57.6259 14.2926 57.4838 14.8977 57.4838 15.5511V17.0426C57.4838 17.9176 57.6372 18.6619 57.9441 19.2756C58.2566 19.8892 58.6912 20.358 59.248 20.6818C59.8049 21 60.4554 21.1591 61.1997 21.1591C61.6827 21.1591 62.123 21.0909 62.5208 20.9545C62.9185 20.8125 63.2622 20.6023 63.552 20.3239C63.8418 20.0455 64.0634 19.7017 64.2168 19.2926L66.6287 19.7273C66.4355 20.4375 66.0889 21.0597 65.5889 21.5938C65.0946 22.1222 64.4725 22.5341 63.7225 22.8295C62.9782 23.1193 62.1287 23.2642 61.1742 23.2642ZM74.5401 23.2642C73.2503 23.2642 72.1395 22.9886 71.2077 22.4375C70.2816 21.8807 69.5657 21.0994 69.06 20.0938C68.56 19.0824 68.31 17.8977 68.31 16.5398C68.31 15.1989 68.56 14.017 69.06 12.9943C69.5657 11.9716 70.2702 11.1733 71.1736 10.5994C72.0827 10.0256 73.1452 9.73864 74.3611 9.73864C75.0998 9.73864 75.8157 9.8608 76.5089 10.1051C77.202 10.3494 77.8242 10.733 78.3753 11.2557C78.9265 11.7784 79.3611 12.4574 79.6793 13.2926C79.9975 14.1222 80.1566 15.1307 80.1566 16.3182V17.2216H69.7503V15.3125H77.6594C77.6594 14.642 77.5231 14.0483 77.2503 13.5312C76.9776 13.0085 76.5941 12.5966 76.0998 12.2955C75.6111 11.9943 75.0373 11.8438 74.3782 11.8438C73.6623 11.8438 73.0373 12.0199 72.5032 12.3722C71.9748 12.7187 71.5657 13.1733 71.2759 13.7358C70.9918 14.2926 70.8498 14.8977 70.8498 15.5511V17.0426C70.8498 17.9176 71.0032 18.6619 71.31 19.2756C71.6225 19.8892 72.0572 20.358 72.614 20.6818C73.1708 21 73.8214 21.1591 74.5657 21.1591C75.0486 21.1591 75.489 21.0909 75.8867 20.9545C76.2844 20.8125 76.6282 20.6023 76.918 20.3239C77.2077 20.0455 77.4293 19.7017 77.5827 19.2926L79.9947 19.7273C79.8015 20.4375 79.4549 21.0597 78.9549 21.5938C78.4606 22.1222 77.8384 22.5341 77.0884 22.8295C76.3441 23.1193 75.4947 23.2642 74.5401 23.2642ZM88.3748 9.90909V11.9545H81.2242V9.90909H88.3748ZM83.1418 6.77273H85.6901V19.1562C85.6901 19.6506 85.764 20.0227 85.9117 20.2727C86.0595 20.517 86.2498 20.6847 86.4828 20.7756C86.7214 20.8608 86.9799 20.9034 87.2583 20.9034C87.4629 20.9034 87.6418 20.8892 87.7953 20.8608C87.9487 20.8324 88.068 20.8097 88.1532 20.7926L88.6134 22.8977C88.4657 22.9545 88.2555 23.0114 87.9828 23.0682C87.71 23.1307 87.3691 23.1648 86.96 23.1705C86.2896 23.1818 85.6646 23.0625 85.085 22.8125C84.5055 22.5625 84.0367 22.1761 83.6788 21.6534C83.3208 21.1307 83.1418 20.4744 83.1418 19.6847V6.77273ZM90.9595 23V5.54545H97.1811C98.539 5.54545 99.664 5.79261 100.556 6.28693C101.448 6.78125 102.116 7.45739 102.559 8.31534C103.002 9.16761 103.224 10.1278 103.224 11.196C103.224 12.2699 102.999 13.2358 102.55 14.0938C102.107 14.946 101.437 15.6222 100.539 16.1222C99.647 16.6165 98.5248 16.8636 97.1726 16.8636H92.8941V14.6307H96.9339C97.7919 14.6307 98.4879 14.483 99.022 14.1875C99.5561 13.8864 99.9481 13.4773 100.198 12.9602C100.448 12.4432 100.573 11.8551 100.573 11.196C100.573 10.5369 100.448 9.9517 100.198 9.44034C99.9481 8.92898 99.5532 8.52841 99.0135 8.23864C98.4794 7.94886 97.7748 7.80398 96.8998 7.80398H93.593V23H90.9595ZM110.737 23.2642C109.509 23.2642 108.438 22.983 107.524 22.4205C106.609 21.858 105.899 21.071 105.393 20.0597C104.887 19.0483 104.634 17.8665 104.634 16.5142C104.634 15.1562 104.887 13.9687 105.393 12.9517C105.899 11.9347 106.609 11.1449 107.524 10.5824C108.438 10.0199 109.509 9.73864 110.737 9.73864C111.964 9.73864 113.035 10.0199 113.95 10.5824C114.864 11.1449 115.575 11.9347 116.08 12.9517C116.586 13.9687 116.839 15.1562 116.839 16.5142C116.839 17.8665 116.586 19.0483 116.08 20.0597C115.575 21.071 114.864 21.858 113.95 22.4205C113.035 22.983 111.964 23.2642 110.737 23.2642ZM110.745 21.125C111.541 21.125 112.2 20.9148 112.722 20.4943C113.245 20.0739 113.632 19.5142 113.882 18.8153C114.137 18.1165 114.265 17.3466 114.265 16.5057C114.265 15.6705 114.137 14.9034 113.882 14.2045C113.632 13.5 113.245 12.9347 112.722 12.5085C112.2 12.0824 111.541 11.8693 110.745 11.8693C109.944 11.8693 109.279 12.0824 108.751 12.5085C108.228 12.9347 107.839 13.5 107.583 14.2045C107.333 14.9034 107.208 15.6705 107.208 16.5057C107.208 17.3466 107.333 18.1165 107.583 18.8153C107.839 19.5142 108.228 20.0739 108.751 20.4943C109.279 20.9148 109.944 21.125 110.745 21.125ZM121.512 5.54545V23H118.963V5.54545H121.512ZM126.768 5.54545V23H124.22V5.54545H126.768Z" fill="#0D1216"/>
<path d="M22.5 8.99993C22.5 8.20428 22.1839 7.44122 21.6213 6.87861C21.0587 6.316 20.2956 5.99993 19.5 5.99993H18.75V5.27103C18.75 4.86743 18.4397 4.52103 18.0361 4.50087C17.9347 4.49598 17.8333 4.51174 17.7382 4.54717C17.6431 4.58261 17.5561 4.637 17.4826 4.70704C17.4091 4.77707 17.3506 4.8613 17.3106 4.95462C17.2706 5.04794 17.25 5.14841 17.25 5.24993V5.99993H6.75V5.27103C6.75 4.86743 6.43969 4.52103 6.03609 4.50087C5.93469 4.49598 5.83334 4.51174 5.7382 4.54717C5.64307 4.58261 5.55611 4.637 5.48261 4.70704C5.40911 4.77707 5.3506 4.8613 5.31062 4.95462C5.27063 5.04794 5.25001 5.14841 5.25 5.24993V5.99993H4.5C3.70435 5.99993 2.94129 6.316 2.37868 6.87861C1.81607 7.44122 1.5 8.20428 1.5 8.99993V9.56243C1.5 9.61216 1.51975 9.65985 1.55492 9.69501C1.59008 9.73018 1.63777 9.74993 1.6875 9.74993H22.3125C22.3622 9.74993 22.4099 9.73018 22.4451 9.69501C22.4802 9.65985 22.5 9.61216 22.5 9.56243V8.99993ZM1.5 22.4999C1.5 23.2956 1.81607 24.0586 2.37868 24.6213C2.94129 25.1839 3.70435 25.4999 4.5 25.4999H19.5C20.2956 25.4999 21.0587 25.1839 21.6213 24.6213C22.1839 24.0586 22.5 23.2956 22.5 22.4999V11.3906C22.5 11.3533 22.4852 11.3175 22.4588 11.2911C22.4324 11.2647 22.3967 11.2499 22.3594 11.2499H1.64062C1.60333 11.2499 1.56756 11.2647 1.54119 11.2911C1.51482 11.3175 1.5 11.3533 1.5 11.3906V22.4999ZM17.625 12.7499C17.8475 12.7499 18.065 12.8159 18.25 12.9395C18.435 13.0631 18.5792 13.2388 18.6644 13.4444C18.7495 13.65 18.7718 13.8762 18.7284 14.0944C18.685 14.3126 18.5778 14.5131 18.4205 14.6704C18.2632 14.8278 18.0627 14.9349 17.8445 14.9783C17.6262 15.0217 17.4 14.9994 17.1945 14.9143C16.9889 14.8291 16.8132 14.685 16.6896 14.4999C16.566 14.3149 16.5 14.0974 16.5 13.8749C16.5 13.5766 16.6185 13.2904 16.8295 13.0794C17.0405 12.8685 17.3266 12.7499 17.625 12.7499ZM17.625 16.4999C17.8475 16.4999 18.065 16.5659 18.25 16.6895C18.435 16.8131 18.5792 16.9888 18.6644 17.1944C18.7495 17.4 18.7718 17.6262 18.7284 17.8444C18.685 18.0626 18.5778 18.2631 18.4205 18.4204C18.2632 18.5778 18.0627 18.6849 17.8445 18.7283C17.6262 18.7717 17.4 18.7494 17.1945 18.6643C16.9889 18.5791 16.8132 18.435 16.6896 18.2499C16.566 18.0649 16.5 17.8474 16.5 17.6249C16.5 17.3266 16.6185 17.0404 16.8295 16.8294C17.0405 16.6185 17.3266 16.4999 17.625 16.4999ZM13.875 12.7499C14.0975 12.7499 14.315 12.8159 14.5 12.9395C14.685 13.0631 14.8292 13.2388 14.9144 13.4444C14.9995 13.65 15.0218 13.8762 14.9784 14.0944C14.935 14.3126 14.8278 14.5131 14.6705 14.6704C14.5132 14.8278 14.3127 14.9349 14.0945 14.9783C13.8762 15.0217 13.65 14.9994 13.4445 14.9143C13.2389 14.8291 13.0632 14.685 12.9396 14.4999C12.816 14.3149 12.75 14.0974 12.75 13.8749C12.75 13.5766 12.8685 13.2904 13.0795 13.0794C13.2905 12.8685 13.5766 12.7499 13.875 12.7499ZM13.875 16.4999C14.0975 16.4999 14.315 16.5659 14.5 16.6895C14.685 16.8131 14.8292 16.9888 14.9144 17.1944C14.9995 17.4 15.0218 17.6262 14.9784 17.8444C14.935 18.0626 14.8278 18.2631 14.6705 18.4204C14.5132 18.5778 14.3127 18.6849 14.0945 18.7283C13.8762 18.7717 13.65 18.7494 13.4445 18.6643C13.2389 18.5791 13.0632 18.435 12.9396 18.2499C12.816 18.0649 12.75 17.8474 12.75 17.6249C12.75 17.3266 12.8685 17.0404 13.0795 16.8294C13.2905 16.6185 13.5766 16.4999 13.875 16.4999ZM13.875 20.2499C14.0975 20.2499 14.315 20.3159 14.5 20.4395C14.685 20.5631 14.8292 20.7388 14.9144 20.9444C14.9995 21.15 15.0218 21.3762 14.9784 21.5944C14.935 21.8126 14.8278 22.0131 14.6705 22.1704C14.5132 22.3278 14.3127 22.4349 14.0945 22.4783C13.8762 22.5217 13.65 22.4994 13.4445 22.4143C13.2389 22.3291 13.0632 22.185 12.9396 21.9999C12.816 21.8149 12.75 21.5974 12.75 21.3749C12.75 21.0766 12.8685 20.7904 13.0795 20.5794C13.2905 20.3685 13.5766 20.2499 13.875 20.2499ZM10.125 16.4999C10.3475 16.4999 10.565 16.5659 10.75 16.6895C10.935 16.8131 11.0792 16.9888 11.1644 17.1944C11.2495 17.4 11.2718 17.6262 11.2284 17.8444C11.185 18.0626 11.0778 18.2631 10.9205 18.4204C10.7632 18.5778 10.5627 18.6849 10.3445 18.7283C10.1262 18.7717 9.90005 18.7494 9.69448 18.6643C9.48891 18.5791 9.31321 18.435 9.1896 18.2499C9.06598 18.0649 9 17.8474 9 17.6249C9 17.3266 9.11853 17.0404 9.3295 16.8294C9.54048 16.6185 9.82663 16.4999 10.125 16.4999ZM10.125 20.2499C10.3475 20.2499 10.565 20.3159 10.75 20.4395C10.935 20.5631 11.0792 20.7388 11.1644 20.9444C11.2495 21.15 11.2718 21.3762 11.2284 21.5944C11.185 21.8126 11.0778 22.0131 10.9205 22.1704C10.7632 22.3278 10.5627 22.4349 10.3445 22.4783C10.1262 22.5217 9.90005 22.4994 9.69448 22.4143C9.48891 22.3291 9.31321 22.185 9.1896 21.9999C9.06598 21.8149 9 21.5974 9 21.3749C9 21.0766 9.11853 20.7904 9.3295 20.5794C9.54048 20.3685 9.82663 20.2499 10.125 20.2499ZM6.375 16.4999C6.5975 16.4999 6.81501 16.5659 7.00002 16.6895C7.18502 16.8131 7.32922 16.9888 7.41436 17.1944C7.49951 17.4 7.52179 17.6262 7.47838 17.8444C7.43498 18.0626 7.32783 18.2631 7.1705 18.4204C7.01316 18.5778 6.81271 18.6849 6.59448 18.7283C6.37625 18.7717 6.15005 18.7494 5.94448 18.6643C5.73891 18.5791 5.56321 18.435 5.4396 18.2499C5.31598 18.0649 5.25 17.8474 5.25 17.6249C5.25 17.3266 5.36853 17.0404 5.5795 16.8294C5.79048 16.6185 6.07663 16.4999 6.375 16.4999ZM6.375 20.2499C6.5975 20.2499 6.81501 20.3159 7.00002 20.4395C7.18502 20.5631 7.32922 20.7388 7.41436 20.9444C7.49951 21.15 7.52179 21.3762 7.47838 21.5944C7.43498 21.8126 7.32783 22.0131 7.1705 22.1704C7.01316 22.3278 6.81271 22.4349 6.59448 22.4783C6.37625 22.5217 6.15005 22.4994 5.94448 22.4143C5.73891 22.3291 5.56321 22.185 5.4396 21.9999C5.31598 21.8149 5.25 21.5974 5.25 21.3749C5.25 21.0766 5.36853 20.7904 5.5795 20.5794C5.79048 20.3685 6.07663 20.2499 6.375 20.2499Z" fill="#4A40F2"/>
</svg>
