<svg width="28" height="28" viewBox="0 0 28 28" fill="none" xmlns="http://www.w3.org/2000/svg">
<path d="M14 2.33325C12.4679 2.33325 10.9508 2.63502 9.53534 3.22132C8.11987 3.80763 6.83375 4.66699 5.7504 5.75034C3.56248 7.93826 2.33331 10.9057 2.33331 13.9999C2.33331 19.1566 5.68165 23.5316 10.3133 25.0833C10.8966 25.1766 11.0833 24.8149 11.0833 24.4999V22.5283C7.85165 23.2283 7.16331 20.9649 7.16331 20.9649C6.62665 19.6116 5.86831 19.2499 5.86831 19.2499C4.80665 18.5266 5.94998 18.5499 5.94998 18.5499C7.11665 18.6316 7.73498 19.7516 7.73498 19.7516C8.74998 21.5249 10.465 20.9999 11.13 20.7199C11.235 19.9616 11.5383 19.4483 11.865 19.1566C9.27498 18.8649 6.55665 17.8616 6.55665 13.4166C6.55665 12.1216 6.99998 11.0833 7.75831 10.2549C7.64165 9.96325 7.23331 8.74992 7.87498 7.17492C7.87498 7.17492 8.85498 6.85992 11.0833 8.36492C12.005 8.10825 13.0083 7.97992 14 7.97992C14.9916 7.97992 15.995 8.10825 16.9166 8.36492C19.145 6.85992 20.125 7.17492 20.125 7.17492C20.7666 8.74992 20.3583 9.96325 20.2416 10.2549C21 11.0833 21.4433 12.1216 21.4433 13.4166C21.4433 17.8733 18.7133 18.8533 16.1116 19.1449C16.5316 19.5066 16.9166 20.2183 16.9166 21.3033V24.4999C16.9166 24.8149 17.1033 25.1883 17.6983 25.0833C22.33 23.5199 25.6666 19.1566 25.6666 13.9999C25.6666 12.4678 25.3649 10.9507 24.7786 9.53528C24.1923 8.11981 23.3329 6.83369 22.2496 5.75034C21.1662 4.66699 19.8801 3.80763 18.4646 3.22132C17.0492 2.63502 15.5321 2.33325 14 2.33325Z" fill="#4A40F2"/>
</svg>
